<?xml version="1.0" encoding="UTF-8"?>
<svg id="Calque_2" data-name="Calque 2" xmlns="http://www.w3.org/2000/svg" viewBox="0 0 281.95 111.79">
  <defs>
    
  </defs>
  <g id="Calque_1-2" data-name="Calque 1">
    <g>
      <path class="cls-1" d="M176.03,77.28c-.22,9.73,10.25,15.09,19.69,15.11l46.32.11c.61,9.93-5.43,17.83-15.27,18.43-12.24.74-24.45,1.15-36.78.06-10.16-.9-20.35-4.98-26.63-13.12-8.84-11.46-8.84-28.67.06-40.12,12.17-15.67,33.45-13.47,52.06-13.54,9.61-.04,17.86,3.26,25.01,10.28l-11.19,14.56c-3.86-3.63-8.46-6.17-13.78-6.14l-19.06.09c-9.6.05-20.22,5.25-20.42,14.29Z"></path>
      <g>
        <path class="cls-1" d="M84.55,91.67c-.18,14.27-15.41,20.03-29.53,20.04l-33.1.02c-7.39,0-19.31-6.34-19.47-15.55l53.57-.13c3.61,0,9.86-1.11,9.96-5.47-.78-2.86-6.86-4.71-9.99-4.73l-31.02-.28c-6.08-.06-13.02-2.1-17.8-5.92C-.22,73.74-2.49,61.7,3.17,53.96c4.46-6.1,12.8-9.38,20.34-9.42l40.45-.22c7.11-.04,18.61,6.7,17.77,15.28l-52.68.13c-2.97,0-8.98,2.12-9.09,5.01-.12,3.2,5.57,4.92,8.21,4.94l25.88.22c15.57.14,30.69,6,30.5,21.76Z"></path>
        <path class="cls-1" d="M145.14,63c-12.9-1.84-29.87,3.43-29.86,11.03v37.75s-18.96-.02-18.96-.02l.22-52.02c.04-10.3,9.19-16.93,18.38-16.16l.29,5.71c10.29-6.18,22.53-6.3,34.71-3.71l-4.77,17.41Z"></path>
      </g>
      <path class="cls-1" d="M272.53,111.55h-18.57s.38-51.55.38-51.55c.07-9.71,8.51-16.32,18.14-15.57l.04,67.11Z"></path>
      <path class="cls-2" d="M275.42,31.3h-18.19c-3.8,0-6.51-2.4-6.91-6.26l.06-18.8C250.4,2.64,253.8,0,257.19,0h18.26c3.04,0,6.5,2.76,6.5,6.09v19.11c0,3.58-3.3,6.1-6.53,6.11Z"></path>
    </g>
  </g>
</svg>